# xmcd
#
# Track frame offsets: 
#        187
#        25040
#        39107
#        62535
#        82260
#        106500
#        121395
#        141565
#        165760
#        185080
#        200355
#        214132
#        236440
#        256130
#        273507
#        302260
#
# Disc length: 4271 seconds
#
# Revision: 3
# Processed by: cddbd v1.5.2PL0 Copyright (c) Steve Scherf et al.
# Submitted via: ExactAudioCopyFreeDBPlugin 1.0
#
DISCID=ce10ad10
DTITLE=Cephas and Wiggins - Bluesmen
DYEAR=1993
DGENRE=Blues
TTITLE0=Big Boss Man
TTITLE1=Mama Let Me Lay It On You
TTITLE2=Prison Bound Blues
TTITLE3=Jesus Is Mine
TTITLE4=The Little Red Rooster
TTITLE5=Blakes Rag
TTITLE6=A Shanty In Old Shanty Town
TTITLE7=Broke Down Engine
TTITLE8=Good Morning Little School Girl
TTITLE9=St. Louis Blues
TTITLE10=The Things I used to Do
TTITLE11=Sick Bed Blues
TTITLE12=Burn Your Bridges
TTITLE13=Goin To The River
TTITLE14=Prison Blues
TTITLE15=Keep Your Hands Off Her
EXTD=
EXTT0=
EXTT1=
EXTT2=
EXTT3=
EXTT4=
EXTT5=
EXTT6=
EXTT7=
EXTT8=
EXTT9=
EXTT10=
EXTT11=
EXTT12=
EXTT13=
EXTT14=
EXTT15=
PLAYORDER=
